# xmcd CD database file
#
# Track frame offsets:
#	182
#	11917
#	25792
#	36755
#	50140
#	61325
#	76605
#	91220
#	111512
#	126090
#	144342
#	156165
#	171232
#	183837
#	196955
#	211440
#	224800
#	236702
#	251590
#	265347
#	279527
#	293475
#
# Disc length: 4090 seconds
#
# Revision: 5
# Processed by: cddbd v1.5.2PL0 Copyright (c) Steve Scherf et al.
# Submitted via: CDex 1.51
#
DISCID=460ff816
DTITLE=Ella Fitzgerald - The Young Ella  {1936-1939}
DYEAR=1993
DGENRE=Jazz
TTITLE0=Sing Me A Swing Song  (And Let Me Dance)
TTITLE1=A Little Bit Later On
TTITLE2=Devoting My Time To You
TTITLE3=You'll Have To Swing It  (Mr. Paganini)
TTITLE4=Vote For Mr. Rhythm
TTITLE5=I Got A Guy
TTITLE6=Rock It For Me
TTITLE7=I Want To Be Happy
TTITLE8=The Dipsy Doodle
TTITLE9=Hallelujah!
TTITLE10=A-Tisket, A-Tasket
TTITLE11=I'm Just A Jitterbug
TTITLE12=Ella
TTITLE13=Gotta Pebble In My Shoe
TTITLE14=I Let A Tear Fall In The River
TTITLE15=F.D.R. Jones
TTITLE16=I Found My Yellow Basket
TTITLE17=Undecided
TTITLE18='Tain't What You Do  (It's The Way What Cha Do It)
TTITLE19=My Heart Belongs To Daddy
TTITLE20=Chew-Chew-Chew  (Your Bubble Gum)
TTITLE21=Little White Lies
EXTD=YEAR: 1993
EXTT0=
EXTT1=
EXTT2=
EXTT3=
EXTT4=
EXTT5=
EXTT6=
EXTT7=
EXTT8=
EXTT9=
EXTT10=
EXTT11=
EXTT12=
EXTT13=
EXTT14=
EXTT15=
EXTT16=
EXTT17=
EXTT18=
EXTT19=
EXTT20=
EXTT21=
PLAYORDER=
